<svg width="865" height="172" viewBox="0 0 865 172" fill="none" xmlns="http://www.w3.org/2000/svg">
<g clip-path="url(#clip0_3837_477)">
<path fill-rule="evenodd" clip-rule="evenodd" d="M168.249 1.32178H0.272949V169.2H168.249V1.32178ZM34.8335 54.547C33.0159 52.4727 29.6346 53.777 29.6346 56.5525V106.218C29.6346 108.291 31.6467 109.747 33.5786 109.072L66.8979 97.4322C68.9055 96.7306 69.5637 94.1824 68.1529 92.5726L34.8335 54.547ZM133.914 61.1869C135.943 59.3249 139.165 60.9943 138.868 63.7535L133.42 114.3C133.19 116.44 130.89 117.654 129.031 116.619L98.1462 99.4146C96.3538 98.4155 96.0656 95.9219 97.5822 94.5297L133.914 61.1869Z" fill="#F84A5B"/>
</g>
<path d="M184.46 169V1.11975H288.12C299.987 1.11975 310.264 3.21389 318.951 7.40217C327.638 11.5129 334.308 17.3687 338.961 24.9697C343.693 32.4931 346.058 41.4126 346.058 51.7281V51.9608C346.058 64.0603 342.84 74.3371 336.402 82.7912C330.042 91.1678 320.89 97.1012 308.945 100.591L351.526 169H322.557L283.001 103.849C282.769 103.849 282.536 103.849 282.303 103.849C282.071 103.849 281.799 103.849 281.489 103.849H209.125V169H184.46ZM209.125 83.722H286.492C297.428 83.722 305.882 81.0461 311.854 75.6944C317.904 70.2652 320.929 62.5866 320.929 52.6589V52.4262C320.929 42.8087 317.787 35.324 311.505 29.9724C305.3 24.5431 296.691 21.8285 285.677 21.8285H209.125V83.722ZM370.374 169V47.4235H394.107V169H370.374ZM382.24 27.8782C378.207 27.8782 374.795 26.5597 372.002 23.9226C369.288 21.208 367.93 17.9504 367.93 14.15C367.93 10.2719 369.288 7.01437 372.002 4.3773C374.795 1.74024 378.207 0.421704 382.24 0.421704C386.351 0.421704 389.764 1.74024 392.478 4.3773C395.193 7.01437 396.55 10.2719 396.55 14.15C396.55 17.9504 395.193 21.208 392.478 23.9226C389.764 26.5597 386.351 27.8782 382.24 27.8782ZM482.759 171.676C469.108 171.676 457.474 170.241 447.857 167.371C438.239 164.424 430.716 160.197 425.287 154.69C419.935 149.106 416.716 142.397 415.63 134.563L415.514 133.632H439.248L439.48 134.563C440.954 140.768 445.297 145.499 452.51 148.757C459.724 151.937 469.962 153.527 483.224 153.527C491.136 153.527 497.806 152.829 503.235 151.432C508.742 149.959 512.891 147.865 515.684 145.15C518.476 142.358 519.872 139.023 519.872 135.145V135.028C519.872 130.375 518.049 126.885 514.404 124.558C510.836 122.153 504.515 120.408 495.44 119.322L461.469 115.716C452.161 114.552 444.367 112.536 438.084 109.666C431.879 106.796 427.187 103.073 424.007 98.4973C420.904 93.9212 419.353 88.4919 419.353 82.2095V82.0932C419.353 74.4147 421.68 67.7832 426.334 62.1988C431.065 56.6145 437.813 52.3098 446.577 49.285C455.341 46.2601 465.773 44.7477 477.873 44.7477C490.748 44.7477 501.723 46.2601 510.797 49.285C519.949 52.2323 527.046 56.4206 532.088 61.8498C537.129 67.2791 539.96 73.7554 540.581 81.2788L540.697 82.7912H518.243L518.127 82.0932C517.196 76.1986 513.24 71.5449 506.26 68.1322C499.28 64.7196 489.895 63.0132 478.105 63.0132C470.582 63.0132 464.222 63.7501 459.026 65.2237C453.907 66.6198 450.028 68.6752 447.391 71.3898C444.754 74.0269 443.436 77.2068 443.436 80.9298V81.0461C443.436 83.9934 444.25 86.5141 445.879 88.6083C447.585 90.7024 450.222 92.4088 453.79 93.7273C457.436 95.0458 462.206 96.0929 468.1 96.8685L502.188 100.475C517.08 102.259 527.783 105.788 534.298 111.062C540.813 116.336 544.071 123.821 544.071 133.516V133.632C544.071 141.466 541.628 148.214 536.741 153.876C531.855 159.538 524.836 163.92 515.684 167.022C506.531 170.125 495.557 171.676 482.759 171.676ZM565.245 169V1.11975H589.095V71.9715H589.56C594.136 63.4398 601 56.7696 610.153 51.9608C619.305 47.1521 629.931 44.7477 642.03 44.7477C653.974 44.7477 664.212 47.1133 672.744 51.8445C681.276 56.4981 687.83 63.1684 692.406 71.8552C697.059 80.542 699.386 90.9739 699.386 103.151V169H675.536V106.874C675.536 93.2231 672.085 82.7912 665.182 75.5781C658.279 68.3649 648.274 64.7583 635.166 64.7583C625.936 64.7583 617.831 66.581 610.851 70.2264C603.948 73.8717 598.596 78.9907 594.796 85.5834C590.995 92.1761 589.095 99.8546 589.095 108.619V169H565.245ZM773.845 171.443C762.986 171.443 753.524 170.008 745.457 167.139C737.391 164.191 731.109 159.887 726.61 154.225C722.112 148.563 719.862 141.621 719.862 133.4V133.167C719.862 126.342 721.569 120.369 724.981 115.25C728.472 110.054 733.862 105.982 741.153 103.035C748.521 100.087 758.022 98.4585 769.656 98.1483L839.694 96.6358V113.273L772.332 115.018C762.327 115.25 755.075 116.918 750.576 120.02C746.155 123.123 743.945 127.311 743.945 132.585V132.818C743.945 139.411 747.086 144.374 753.369 147.71C759.651 150.967 767.911 152.596 778.149 152.596C788.155 152.596 796.841 151.2 804.21 148.408C811.655 145.615 817.434 141.699 821.544 136.657C825.733 131.616 827.827 125.682 827.827 118.857V92.7966C827.827 83.722 824.337 76.7027 817.356 71.7388C810.453 66.6974 800.719 64.1766 788.155 64.1766C776.986 64.1766 767.989 66.0769 761.163 69.8774C754.416 73.6003 750.189 78.6417 748.482 85.0017L748.133 86.0488H725.098L725.33 84.769C726.494 77.0905 729.751 70.2652 735.103 64.293C740.532 58.2432 747.707 53.4733 756.626 49.983C765.623 46.4928 776.171 44.7477 788.271 44.7477C801.534 44.7477 812.896 46.6091 822.359 50.332C831.821 54.055 839.034 59.4067 843.998 66.3871C849.04 73.29 851.56 81.5503 851.56 91.1678V169H827.827V147.244H827.245C824.375 152.131 820.265 156.396 814.913 160.042C809.639 163.61 803.473 166.402 796.415 168.418C789.434 170.435 781.911 171.443 773.845 171.443Z" fill="black"/>
<defs>
<clipPath id="clip0_3837_477">
<rect width="168.522" height="168.522" fill="white" transform="translate(0 1)"/>
</clipPath>
</defs>
</svg>
